<?xml version="1.0" encoding="iso-8859-1"?>
<!-- Generator: Adobe Illustrator 19.0.0, SVG Export Plug-In . SVG Version: 6.00 Build 0)  -->
<svg version="1.1" xmlns="http://www.w3.org/2000/svg" xmlns:xlink="http://www.w3.org/1999/xlink" x="0px" y="0px"
	 viewBox="0 0 512 512" style="enable-background:new 0 0 512 512;" xml:space="preserve">
<g id="_x31_4_x2C__Cloud_x2C__computer_x2C__forecast_x2C__internet_x2C__online">
	<g id="XMLID_961_">
		<path id="XMLID_1004_" style="fill:#7CE2F8;" d="M486,96v240H26V96c0-22.09,17.91-40,40-40h380C468.09,56,486,73.91,486,96z"/>
		<path id="XMLID_253_" style="fill:#FDD82E;" d="M210.04,148.61c-12.26,4.12-22.4,12.87-28.33,24.18
			c-0.169-0.085-2.497-1.935-5.62-3.37c-17.801-8.514-39.215-0.61-47.16,17.56c-6.254-16.446-2.369-35.181,10.25-47.8
			c8.14-8.14,19.4-13.18,31.82-13.18C187.295,126,202.062,134.738,210.04,148.61z"/>
		<path id="XMLID_252_" style="fill:#FBF3F3;" d="M181.66,172.75c0.02,0.02,0.03,0.03,0.05,0.04
			C190.144,156.704,206.965,146,226,146c20.61,0,38.31,12.47,45.96,30.28c22.886-3.121,40.462,19.726,31.85,40.98
			C311.383,224.611,316,234.797,316,246c0,22.09-17.91,40-40,40H126c-22.079,0-40-17.919-40-40c0-22.09,17.91-40,40-40h0.36
			C122.023,175.265,156.776,154.502,181.66,172.75z"/>
		<path id="XMLID_251_" d="M184.965,193.853c-1.541-5.177-4.797-9.793-9.168-12.998c-4.454-3.266-5.417-9.524-2.152-13.978
			s9.524-5.417,13.977-2.152c7.869,5.769,13.733,14.087,16.512,23.421c1.576,5.293-1.438,10.862-6.731,12.438
			C192.085,202.167,186.534,199.123,184.965,193.853z"/>
		<path id="XMLID_250_" d="M128.93,196.985c-4.407,0-8.147-2.847-9.479-6.804C105.934,153.904,133.031,116,171,116
			c20.494,0,38.215,11.123,47.708,27.624c2.753,4.788,1.105,10.901-3.682,13.655c-4.787,2.752-10.9,1.105-13.655-3.682
			C195.257,142.964,183.92,136,171,136c-24.562,0-41.395,24.618-32.723,47.425C140.755,189.936,135.952,196.985,128.93,196.985z"/>
		<path id="XMLID_990_" d="M276,296H126c-27.622,0-50-22.374-50-50c0-24.208,17.295-44.454,40.177-49.031
			c2.698-30.59,34.638-49.151,62.199-37.486c25.788-33.744,78.194-30.686,99.629,6.567c24.539,1.216,42.488,24.365,37.029,48.713
			C321.871,223.29,326,234.175,326,246C326,273.57,303.57,296,276,296z M126,216c-16.542,0-30,13.458-30,30
			c0,16.569,13.429,30,30,30h150c16.542,0,30-13.458,30-30c0-8.272-3.352-15.931-9.155-21.565
			c-2.921-2.835-3.832-7.158-2.303-10.931c5.726-14.13-5.97-29.392-21.233-27.316c-4.459,0.602-8.763-1.833-10.537-5.962
			c-8.301-19.326-29.975-28.74-49.536-22.141c-9.667,3.248-17.925,10.299-22.67,19.348c-2.547,4.859-8.534,6.757-13.415,4.257
			c-0.945-0.484-0.97-0.614-2.819-1.838l0.097,0.052c-0.211-0.114-0.419-0.237-0.622-0.366c-2.168-1.384-5.48-2.577-7.494-2.973
			c-12.727-2.498-23.757,4.215-28.22,14.422c-0.004,0.008-0.008,0.017-0.011,0.025c-1.849,4.197-2.491,8.837-1.82,13.591
			c0.85,6.021-3.832,11.397-9.902,11.397H126z M128.93,186.98h0.01H128.93z M173.265,179.215c0.003,0.002,0.006,0.004,0.009,0.006
			C173.271,179.219,173.268,179.217,173.265,179.215z M167.264,176.786c0.011,0.003,0.023,0.006,0.034,0.008
			C167.29,176.792,167.278,176.789,167.264,176.786z M165.266,176.053c0.004,0.002,0.008,0.004,0.012,0.006
			C165.274,176.057,165.27,176.055,165.266,176.053z M165.248,176.044c0.005,0.002,0.009,0.004,0.014,0.007
			C165.257,176.049,165.253,176.047,165.248,176.044z"/>
		<path id="XMLID_242_" style="fill:#203355;" d="M351,456H161c38.66,0,70-31.34,70-70h50C281,424.658,312.339,456,351,456z"/>
		<path id="XMLID_241_" style="fill:#2F446C;" d="M486,336v10c0,22.09-17.91,40-40,40c-14.222,0-368.457,0-380,0
			c-22.09,0-40-17.91-40-40v-10H486z"/>
		<path id="XMLID_985_" d="M446,396H66c-27.57,0-50-22.43-50-50V96c0-27.57,22.43-50,50-50h380c27.57,0,50,22.43,50,50v250
			C496,373.57,473.57,396,446,396z M66,66c-16.542,0-30,13.458-30,30v250c0,16.542,13.458,30,30,30h380c16.542,0,30-13.458,30-30V96
			c0-16.542-13.458-30-30-30H66z"/>
		<path id="XMLID_238_" d="M161,466c-5.523,0-10-4.478-10-10s4.477-10,10-10c33.084,0,60-26.916,60-60c0-5.522,4.477-10,10-10
			s10,4.478,10,10C241,430.112,205.112,466,161,466z"/>
		<path id="XMLID_237_" d="M351,466H161c-5.523,0-10-4.478-10-10s4.477-10,10-10h137.076c-1.244-1.1-2.46-2.242-3.645-3.426
			C279.319,427.45,271,407.36,271,386c0-5.522,4.478-10,10-10s10,4.478,10,10c0,16.021,6.241,31.09,17.574,42.432
			C319.91,439.759,334.979,446,351,446c5.522,0,10,4.478,10,10S356.522,466,351,466z"/>
		<path id="XMLID_236_" d="M171,136c-5.523,0-10-4.477-10-10v-20c0-5.523,4.477-10,10-10s10,4.477,10,10v20
			C181,131.523,176.523,136,171,136z"/>
		<path id="XMLID_235_" d="M132.109,146.251l-14.14-14.14c-3.905-3.905-3.905-10.237,0-14.143s10.237-3.905,14.143,0l14.14,14.14
			c3.905,3.905,3.905,10.237,0,14.143C142.347,150.156,136.014,150.157,132.109,146.251z"/>
		<path id="XMLID_234_" d="M126,181h-20c-5.523,0-10-4.477-10-10s4.477-10,10-10h20c5.523,0,10,4.477,10,10S131.523,181,126,181z"/>
		<path id="XMLID_233_" d="M195.749,146.251c-3.905-3.905-3.905-10.237,0-14.143l14.14-14.14c3.905-3.905,10.237-3.905,14.143,0
			s3.905,10.237,0,14.143l-14.14,14.14C205.987,150.156,199.654,150.157,195.749,146.251z"/>
		<path id="XMLID_232_" d="M486,346H26c-5.523,0-10-4.478-10-10s4.477-10,10-10h460c5.522,0,10,4.478,10,10S491.522,346,486,346z"/>
		<path id="XMLID_231_" d="M356,106h-10c-5.522,0-10-4.477-10-10s4.478-10,10-10h10c5.522,0,10,4.477,10,10S361.522,106,356,106z"/>
		<path id="XMLID_230_" d="M436,106h-40c-5.522,0-10-4.477-10-10s4.478-10,10-10h40c5.522,0,10,4.477,10,10S441.522,106,436,106z"/>
		<path id="XMLID_229_" d="M356,146h-10c-5.522,0-10-4.477-10-10s4.478-10,10-10h10c5.522,0,10,4.477,10,10S361.522,146,356,146z"/>
		<path id="XMLID_228_" d="M436,146h-40c-5.522,0-10-4.477-10-10s4.478-10,10-10h40c5.522,0,10,4.477,10,10S441.522,146,436,146z"/>
		<path id="XMLID_227_" d="M356,186h-10c-5.522,0-10-4.477-10-10s4.478-10,10-10h10c5.522,0,10,4.477,10,10S361.522,186,356,186z"/>
		<path id="XMLID_226_" d="M436,186h-40c-5.522,0-10-4.477-10-10s4.478-10,10-10h40c5.522,0,10,4.477,10,10S441.522,186,436,186z"/>
	</g>
</g>
<g id="Layer_1">
</g>
</svg>
